<svg width="223" height="73" viewBox="0 0 223 73" fill="none" xmlns="http://www.w3.org/2000/svg">
<circle cx="208" cy="17" r="15" fill="#5E1EE5"/>
<path d="M12.624 53.72C10.512 53.72 8.416 53.512 6.336 53.096C4.256 52.712 2.544 52.168 1.2 51.464V43.832C2.928 44.728 4.72 45.4 6.576 45.848C8.464 46.296 10.256 46.52 11.952 46.52C13.52 46.52 14.704 46.28 15.504 45.8C16.304 45.32 16.704 44.632 16.704 43.736C16.704 43.064 16.48 42.488 16.032 42.008C15.616 41.496 14.992 41.032 14.16 40.616C13.328 40.2 12.032 39.624 10.272 38.888C7.168 37.576 4.912 36.12 3.504 34.52C2.096 32.92 1.392 30.952 1.392 28.616C1.392 26.696 1.92 24.984 2.976 23.48C4.064 21.976 5.568 20.808 7.488 19.976C9.408 19.144 11.616 18.728 14.112 18.728C16.16 18.728 17.984 18.888 19.584 19.208C21.184 19.528 22.72 20.04 24.192 20.744V28.184C21.376 26.712 18.544 25.976 15.696 25.976C14.16 25.976 12.928 26.232 12 26.744C11.104 27.224 10.656 27.928 10.656 28.856C10.656 29.784 11.12 30.536 12.048 31.112C12.976 31.688 14.688 32.472 17.184 33.464C19.456 34.392 21.216 35.304 22.464 36.2C23.744 37.096 24.672 38.136 25.248 39.32C25.824 40.504 26.112 42.008 26.112 43.832C26.112 46.936 24.976 49.368 22.704 51.128C20.464 52.856 17.104 53.72 12.624 53.72ZM35.7281 19.448H50.5121C54.4161 19.448 57.5361 20.472 59.8721 22.52C62.2081 24.568 63.3761 27.432 63.3761 31.112C63.3761 34.888 62.2081 37.816 59.8721 39.896C57.5681 41.944 54.4481 42.968 50.5121 42.968H44.2241V53H35.7281V19.448ZM49.1681 35.816C50.8641 35.816 52.1921 35.464 53.1521 34.76C54.1441 34.056 54.6401 32.84 54.6401 31.112C54.6401 29.384 54.1601 28.2 53.2001 27.56C52.2401 26.92 50.8961 26.6 49.1681 26.6H44.2241V35.816H49.1681ZM72.4837 19.448H80.9797V32.408H94.1317V19.448H102.628V53H94.1317V39.464H80.9797V53H72.4837V19.448ZM113.177 19.448H136.985V26.6H121.673V32.888H132.857V39.56H121.673V45.848H136.985V53H113.177V19.448ZM146.604 19.448H161.676C165.612 19.448 168.684 20.44 170.892 22.424C173.132 24.408 174.252 27.256 174.252 30.968C174.252 33.464 173.708 35.592 172.62 37.352C171.532 39.112 169.996 40.424 168.012 41.288L173.964 53H165.228L159.9 42.488H155.1V53H146.604V19.448ZM160.188 35.336C161.884 35.336 163.196 35.016 164.124 34.376C165.052 33.704 165.516 32.568 165.516 30.968C165.516 29.304 165.052 28.168 164.124 27.56C163.228 26.92 161.916 26.6 160.188 26.6H155.1V35.336H160.188ZM183.876 19.448H207.684V26.6H192.372V32.888H203.556V39.56H192.372V45.848H207.684V53H183.876V19.448Z" fill="black"/>
</svg>
